<?xml version="1.0" standalone="no"?>
<!DOCTYPE svg PUBLIC "-//W3C//DTD SVG 20010904//EN"
 "http://www.w3.org/TR/2001/REC-SVG-20010904/DTD/svg10.dtd">
<svg version="1.0" xmlns="http://www.w3.org/2000/svg"
 width="274.000000pt" height="483.000000pt" viewBox="0 0 274.000000 483.000000"
 preserveAspectRatio="xMidYMid meet">

<g transform="translate(0.000000,483.000000) scale(0.100000,-0.100000)"
fill="#000000" stroke="none">
<path d="M1158 4611 c-44 -14 -93 -48 -106 -73 -19 -35 -28 -146 -18 -217 6
-46 5 -74 -4 -102 -7 -22 -11 -42 -8 -45 3 -3 23 -6 44 -8 37 -2 39 -4 36 -32
-5 -41 -18 -53 -92 -87 -36 -16 -83 -37 -105 -47 -22 -10 -53 -33 -70 -50
l-30 -31 2 -207 c2 -203 1 -209 -28 -312 -17 -58 -34 -143 -40 -190 -14 -131
-28 -188 -66 -278 -34 -78 -35 -88 -30 -163 3 -44 11 -86 17 -94 17 -21 59
-19 96 4 30 18 31 22 37 105 7 86 23 141 97 346 41 111 67 225 77 328 8 89 24
63 26 -44 1 -82 -1 -95 -35 -169 -62 -138 -63 -145 -63 -340 1 -191 22 -351
66 -495 15 -52 20 -92 19 -167 -5 -364 -5 -387 17 -488 34 -155 36 -190 18
-244 -8 -26 -31 -63 -50 -81 -19 -19 -35 -37 -35 -42 0 -9 37 -44 67 -65 20
-14 26 -13 56 6 18 11 58 48 87 82 l53 61 -13 72 c-16 81 -18 221 -6 381 5 70
4 133 -3 174 -8 53 -8 70 6 100 12 28 18 99 26 309 6 151 14 268 18 260 4 -7
9 -123 11 -258 4 -192 8 -254 21 -287 13 -34 15 -66 10 -173 -4 -82 -1 -174 7
-244 12 -105 11 -118 -9 -216 -19 -86 -21 -107 -10 -127 7 -12 16 -23 19 -23
4 0 19 -18 33 -39 15 -22 47 -52 72 -67 l46 -27 37 30 c49 40 51 58 9 102 -20
20 -41 49 -46 64 -15 40 -13 131 5 207 43 184 48 263 28 463 l-7 68 274 -1
c151 -1 273 2 272 7 -2 4 -124 9 -273 11 l-270 2 0 38 c0 20 12 75 26 122 39
132 64 324 64 493 0 117 3 147 14 147 23 0 76 -166 83 -261 6 -74 10 -87 34
-111 19 -20 38 -28 62 -28 42 0 53 21 63 121 6 62 4 72 -29 140 -19 41 -38 89
-42 107 l-7 32 236 0 c151 0 236 4 236 10 0 6 -87 10 -240 10 l-239 0 -5 33
c-3 17 -7 43 -8 56 l-3 23 123 -1 c104 -2 122 0 122 13 0 14 -19 16 -124 16
l-124 0 -4 38 c-3 20 -17 80 -32 134 -24 87 -26 110 -24 243 l3 147 85 2 c49
0 85 5 85 11 0 6 -36 11 -85 11 l-85 2 -5 61 c-7 83 -29 103 -194 171 -57 24
-78 38 -82 55 -10 38 -1 70 21 73 44 7 45 9 29 49 -14 31 -14 46 -4 95 14 64
7 162 -15 214 -28 66 -147 111 -227 85z m110 -27 c85 -17 128 -128 102 -265
-10 -51 -10 -75 -2 -93 11 -24 6 -40 -9 -30 -5 3 -10 78 -11 167 -2 89 -5 1
-8 -196 l-5 -358 -249 0 -250 0 3 58 c1 32 5 62 8 66 5 9 108 59 183 90 56 23
97 63 104 102 11 56 0 78 -37 73 l-32 -3 0 155 c0 139 2 158 20 182 32 44 111
66 183 52z m252 -614 c69 -35 80 -51 80 -120 0 -43 -3 -51 -16 -46 -9 3 -63 6
-120 6 l-104 0 0 114 0 114 51 -19 c28 -11 77 -33 109 -49z m-180 -470 l0
-279 -180 -3 c-175 -3 -196 0 -171 28 5 5 16 35 26 66 16 51 16 69 6 149 -12
90 -26 129 -47 129 -7 0 -24 -67 -44 -172 -31 -172 -49 -235 -110 -398 -43
-116 -60 -184 -60 -253 0 -52 -2 -58 -26 -67 -48 -19 -52 -15 -59 68 -6 71 -4
83 20 137 36 78 75 228 75 286 0 25 9 81 21 125 48 182 50 198 49 329 -1 72
-2 132 -1 135 1 3 113 4 251 2 l250 -3 0 -279z m256 132 c1 -128 5 -160 29
-247 15 -55 30 -115 32 -132 l5 -33 -60 0 c-70 0 -59 -24 -97 204 -14 81 -28
152 -31 157 -10 17 -23 9 -41 -23 -13 -25 -17 -59 -17 -143 -1 -93 2 -117 20
-152 12 -23 20 -44 18 -46 -7 -6 -99 8 -96 16 1 4 2 128 2 277 l0 269 113 3
c61 2 114 2 117 0 3 -2 5 -70 6 -150z m-107 -301 c11 -63 18 -117 16 -120 -9
-8 -31 30 -50 83 -20 54 -24 127 -10 191 l8 40 8 -40 c5 -22 17 -91 28 -154z
m-159 -186 c3 -27 4 -53 2 -57 -2 -5 -91 -8 -198 -8 -128 0 -193 -3 -189 -10
4 -6 81 -10 198 -10 l192 0 -2 -810 c-1 -494 2 -812 8 -815 5 -4 9 32 10 87 1
51 2 98 4 103 1 6 3 331 3 723 l2 712 75 0 75 0 0 -132 c0 -180 -23 -354 -66
-507 -13 -46 -24 -101 -24 -122 0 -32 -4 -39 -19 -39 -11 0 -23 -4 -26 -10 -3
-6 4 -10 18 -10 23 0 25 -5 33 -77 14 -127 8 -257 -20 -398 -40 -203 -33 -270
37 -343 l32 -33 -24 -20 c-38 -31 -61 -24 -118 39 -60 65 -62 75 -37 198 14
69 15 95 4 217 -8 81 -10 182 -7 244 5 78 3 118 -8 157 -9 33 -18 139 -24 306
-9 238 -20 330 -43 330 -4 0 -15 -17 -24 -37 -12 -29 -17 -98 -24 -303 -6
-205 -12 -276 -25 -313 -14 -41 -15 -59 -5 -124 9 -59 9 -107 0 -207 -13 -141
-10 -235 9 -333 l13 -63 -31 -35 c-17 -20 -31 -40 -31 -45 0 -11 -63 -50 -81
-50 -8 0 -24 8 -37 18 l-23 18 32 34 c68 76 82 145 53 275 -40 186 -46 238
-38 350 12 187 8 297 -14 372 -76 257 -92 642 -31 763 6 12 37 15 186 15 l178
0 5 -50z m146 29 c6 -10 15 -36 18 -56 l7 -38 -71 0 -70 0 0 58 0 57 52 -1
c39 0 54 -5 64 -20z m63 -30 c24 -65 25 -67 10 -62 -6 2 -20 26 -30 53 -21 56
-23 65 -10 65 4 0 18 -25 30 -56z m125 45 c2 -2 6 -28 9 -56 l6 -53 -44 0
c-41 0 -44 2 -55 38 -7 20 -16 41 -21 47 -20 21 -7 30 46 29 30 0 57 -2 59 -5z
m36 -184 c9 -27 27 -72 40 -99 17 -37 22 -66 21 -115 -1 -36 -4 -74 -7 -83 -7
-22 -32 -23 -61 -3 -17 12 -21 28 -26 102 -3 67 -12 107 -36 166 -17 43 -31
80 -31 83 0 3 19 4 42 2 40 -3 42 -5 58 -53z"/>
<path d="M1307 4193 c-9 -8 -9 -66 -1 -87 12 -32 22 -15 20 34 -3 51 -8 65
-19 53z"/>
<path d="M1927 3833 c-4 -3 -7 -21 -7 -40 0 -26 4 -33 19 -33 11 0 23 5 27 11
4 8 0 9 -15 4 -18 -5 -21 -2 -21 20 0 23 3 25 22 19 20 -6 21 -5 9 10 -14 17
-24 20 -34 9z"/>
<path d="M1982 3800 c0 -37 1 -41 8 -20 8 24 8 24 9 3 1 -13 6 -23 12 -23 6 0
9 11 7 25 -2 14 -7 25 -13 25 -5 -1 -12 7 -16 17 -5 11 -7 1 -7 -27z"/>
<path d="M2170 3816 c-5 -15 -10 -32 -10 -37 0 -5 -5 -9 -11 -9 -7 0 -9 10 -5
24 6 25 -8 44 -19 27 -3 -6 -12 -8 -19 -5 -20 8 -30 -14 -14 -33 9 -12 9 -15
1 -9 -7 4 -13 2 -13 -3 0 -12 23 -15 33 -4 4 3 0 14 -8 23 -13 14 -12 16 5 16
14 0 20 -7 20 -22 0 -13 8 -24 19 -27 16 -4 21 3 30 36 12 48 6 62 -9 23z"/>
<path d="M2200 3801 c0 -34 3 -41 19 -41 11 0 22 4 25 8 10 16 -10 67 -27 70
-14 3 -17 -5 -17 -37z m30 9 c0 -5 -4 -10 -10 -10 -5 0 -10 5 -10 10 0 6 5 10
10 10 6 0 10 -4 10 -10z m0 -30 c0 -5 -4 -10 -10 -10 -5 0 -10 5 -10 10 0 6 5
10 10 10 6 0 10 -4 10 -10z"/>
<path d="M2360 3797 c0 -20 3 -37 8 -37 4 0 7 13 7 29 0 16 -3 33 -7 37 -5 4
-8 -9 -8 -29z"/>
<path d="M2037 3813 c-4 -3 -7 -17 -7 -30 0 -18 5 -23 23 -22 18 1 18 2 4 6
-17 4 -17 5 -1 17 9 7 14 18 10 24 -8 13 -19 15 -29 5z"/>
<path d="M2261 3793 c-1 -27 3 -33 19 -33 16 0 20 7 20 31 0 34 -19 31 -21 -4
-1 -17 -3 -15 -9 8 l-8 30 -1 -32z"/>
<path d="M2315 3810 c-4 -6 -1 -18 7 -27 9 -12 9 -15 1 -9 -7 4 -13 2 -13 -3
0 -12 23 -15 33 -4 4 3 -1 15 -10 25 -16 18 -16 18 2 12 13 -5 16 -4 11 4 -9
15 -23 15 -31 2z"/>
<path d="M2034 3246 c-11 -28 0 -61 21 -61 16 0 20 7 20 35 0 25 -5 36 -18 38
-9 2 -20 -3 -23 -12z m36 -26 c0 -10 -4 -22 -10 -25 -6 -4 -10 7 -10 25 0 18
4 29 10 25 6 -3 10 -15 10 -25z"/>
<path d="M2428 3245 c-7 -7 3 -65 12 -65 4 0 7 14 5 30 -2 31 -8 44 -17 35z"/>
<path d="M2100 3210 c0 -16 2 -30 4 -30 2 0 6 14 8 30 3 17 1 30 -4 30 -4 0
-8 -13 -8 -30z"/>
<path d="M2134 3226 c-8 -22 3 -49 19 -43 6 2 12 14 12 27 0 27 -22 39 -31 16z
m18 -28 c-9 -9 -12 -7 -12 12 0 19 3 21 12 12 9 -9 9 -15 0 -24z"/>
<path d="M2180 3200 c0 -38 1 -39 20 -28 12 8 20 24 20 40 0 21 -5 28 -20 28
-17 0 -20 -7 -20 -40z m30 9 c0 -11 -4 -18 -10 -14 -5 3 -7 12 -3 20 7 21 13
19 13 -6z"/>
<path d="M2233 3227 c4 -10 7 -26 7 -34 0 -13 3 -13 15 -3 11 9 15 9 15 1 0
-7 5 -9 10 -6 6 3 10 18 10 33 0 19 -3 23 -9 13 -7 -11 -9 -11 -14 0 -5 12 -6
12 -6 0 -1 -11 -4 -11 -18 0 -15 12 -16 12 -10 -4z"/>
<path d="M2309 3238 c0 -2 -3 -15 -5 -30 -4 -23 -1 -28 16 -28 16 0 20 6 20
30 0 20 -5 30 -15 30 -8 0 -15 -1 -16 -2z"/>
<path d="M2350 3209 c0 -17 4 -28 10 -24 6 3 10 17 10 31 0 13 -4 24 -10 24
-5 0 -10 -14 -10 -31z"/>
<path d="M2380 3225 c0 -8 5 -15 11 -15 5 0 7 5 3 12 -4 7 -3 8 4 4 7 -4 12
-2 12 3 0 6 -7 11 -15 11 -8 0 -15 -7 -15 -15z"/>
<path d="M2400 3199 c0 -5 -4 -7 -10 -4 -5 3 -10 1 -10 -5 0 -15 32 -9 38 8 2
6 -1 12 -7 12 -6 0 -11 -5 -11 -11z"/>
<path d="M2263 3080 c-1 -25 1 -37 4 -27 2 9 11 17 18 17 7 0 16 -8 18 -17 3
-10 5 2 4 27 0 25 -2 35 -4 23 -2 -13 -11 -23 -18 -23 -7 0 -16 10 -18 23 -2
12 -4 2 -4 -23z"/>
<path d="M2332 3070 c0 -19 2 -27 5 -17 2 9 2 25 0 35 -3 9 -5 1 -5 -18z"/>
<path d="M2357 3093 c-9 -8 -9 -73 -1 -73 4 0 15 10 25 21 14 16 16 26 8 40
-10 20 -21 24 -32 12z m20 -35 c-3 -8 -6 -5 -6 6 -1 11 2 17 5 13 3 -3 4 -12
1 -19z"/>
<path d="M2406 3092 c-10 -16 1 -47 17 -50 20 -4 23 24 5 31 -10 4 -10 6 0 6
7 1 10 6 7 11 -7 12 -22 13 -29 2z"/>
<path d="M2050 2255 c0 -35 22 -57 38 -40 4 4 1 10 -5 12 -7 3 -13 18 -13 34
0 16 -4 29 -10 29 -5 0 -10 -16 -10 -35z"/>
<path d="M2292 2255 c-2 -39 14 -48 21 -12 l4 22 2 -22 c1 -27 21 -31 21 -5 0
14 -31 52 -43 52 -2 0 -4 -16 -5 -35z"/>
<path d="M2260 2251 c0 -17 5 -33 10 -36 6 -4 10 8 10 29 0 20 -4 36 -10 36
-5 0 -10 -13 -10 -29z"/>
<path d="M2103 2254 c-6 -17 22 -52 34 -40 4 4 1 11 -7 16 -10 7 -11 10 -2 10
6 0 12 7 12 15 0 20 -29 19 -37 -1z"/>
<path d="M2152 2245 c-1 -13 3 -27 8 -30 6 -3 11 6 11 22 2 23 2 24 6 6 5 -24
23 -32 23 -11 0 6 6 3 14 -8 11 -14 11 -21 3 -27 -8 -5 -5 -7 8 -5 15 2 21 12
23 41 3 32 0 37 -17 37 -12 0 -21 -5 -21 -12 0 -9 -3 -9 -12 0 -20 20 -43 14
-46 -13z m75 -7 c-3 -8 -6 -5 -6 6 -1 11 2 17 5 13 3 -3 4 -12 1 -19z"/>
<path d="M434 1205 c-11 -26 5 -65 26 -65 10 0 22 5 26 11 4 8 0 9 -15 4 -18
-6 -21 -2 -21 25 0 27 3 31 21 25 15 -5 19 -4 15 4 -10 16 -46 13 -52 -4z"/>
<path d="M500 1180 c0 -22 5 -40 10 -40 6 0 10 7 10 15 0 21 28 19 33 -2 3
-10 5 2 5 27 0 25 -2 37 -5 28 -5 -22 -33 -24 -33 -3 0 8 -4 15 -10 15 -5 0
-10 -18 -10 -40z"/>
<path d="M580 1180 c0 -35 3 -40 23 -39 16 1 18 2 5 6 -10 2 -18 7 -18 10 0 3
8 12 18 19 16 13 16 13 0 14 -10 0 -18 4 -18 9 0 5 8 12 18 14 13 4 11 5 -5 6
-20 1 -23 -4 -23 -39z"/>
<path d="M640 1201 c0 -10 7 -21 15 -25 24 -9 18 -28 -6 -21 -15 5 -19 4 -15
-4 9 -14 43 -14 52 1 4 6 -2 19 -14 29 -28 22 -28 32 -1 24 15 -5 19 -4 15 4
-12 19 -46 13 -46 -8z"/>
<path d="M707 1212 c6 -4 13 -23 16 -42 l4 -35 1 37 c1 20 8 39 15 41 6 3 -1
6 -18 6 -17 0 -25 -3 -18 -7z"/>
<path d="M778 1215 c-3 -6 -9 -28 -12 -50 l-6 -40 16 34 c14 31 16 78 2 56z"/>
<path d="M800 1180 c0 -39 1 -41 28 -38 24 3 27 7 27 38 0 31 -3 35 -27 38
-27 3 -28 1 -28 -38z m40 20 c0 -5 -4 -10 -10 -10 -5 0 -10 5 -10 10 0 6 5 10
10 10 6 0 10 -4 10 -10z m-4 -47 c-10 -10 -19 5 -10 18 6 11 8 11 12 0 2 -7 1
-15 -2 -18z"/>
<path d="M872 1183 c3 -33 6 -38 28 -38 22 0 25 5 27 40 2 42 -1 39 -11 -7 -9
-40 -26 -35 -26 7 0 19 -5 35 -11 35 -6 0 -9 -16 -7 -37z"/>
<path d="M945 1210 c-3 -5 3 -17 15 -27 26 -23 26 -36 -1 -28 -15 5 -19 4 -15
-4 9 -14 43 -14 52 1 4 6 -2 19 -14 29 -28 22 -28 32 -1 24 15 -5 19 -4 15 4
-9 14 -43 14 -51 1z"/>
<path d="M1018 1180 c5 -49 22 -53 22 -6 0 19 6 37 13 39 6 3 1 6 -13 6 -24 1
-25 -2 -22 -39z"/>
<path d="M1590 1180 c0 -39 1 -41 28 -38 24 3 27 7 27 38 0 31 -3 35 -27 38
-27 3 -28 1 -28 -38z m40 0 c0 -16 -4 -30 -10 -30 -5 0 -10 14 -10 30 0 17 5
30 10 30 6 0 10 -13 10 -30z"/>
<path d="M1660 1180 c0 -22 5 -40 10 -40 6 0 10 7 10 15 0 8 5 15 10 15 6 0
10 -7 10 -15 0 -8 5 -15 11 -15 7 0 9 9 5 23 -3 12 -6 30 -6 40 0 11 -8 17
-25 17 -22 0 -25 -4 -25 -40z m40 21 c0 -6 -4 -13 -10 -16 -5 -3 -10 1 -10 9
0 9 5 16 10 16 6 0 10 -4 10 -9z"/>
<path d="M1734 1206 c-3 -8 -4 -25 -2 -38 2 -17 9 -23 28 -23 22 0 25 4 25 35
0 29 -4 36 -23 38 -13 2 -24 -3 -28 -12z m36 -26 c0 -31 -16 -41 -26 -15 -8
19 2 45 16 45 5 0 10 -13 10 -30z"/>
<path d="M1800 1181 c0 -23 5 -41 10 -41 6 0 10 6 10 14 0 7 9 16 21 19 31 8
21 41 -14 45 -25 3 -27 1 -27 -37z m40 14 c0 -8 -4 -15 -10 -15 -5 0 -10 7
-10 15 0 8 5 15 10 15 6 0 10 -7 10 -15z"/>
<path d="M1894 1208 c3 -7 7 -25 10 -40 8 -34 26 -37 27 -5 l0 22 11 -22 c13
-27 28 -30 28 -5 0 9 3 27 6 40 4 12 2 22 -4 22 -6 0 -13 -10 -15 -22 l-4 -23
-2 23 c0 12 -5 22 -9 22 -5 0 -14 -10 -20 -22 l-11 -23 0 23 c-1 12 -5 22 -11
22 -5 0 -8 -6 -6 -12z"/>
<path d="M1993 1180 c-9 -37 -3 -54 12 -30 5 8 11 7 21 -1 17 -14 19 6 4 45
-13 36 -24 32 -37 -14z"/>
<path d="M2063 1180 c0 -25 2 -35 4 -22 2 12 2 32 0 45 -2 12 -4 2 -4 -23z"/>
<path d="M2090 1201 c0 -10 7 -21 15 -25 8 -3 15 -10 15 -17 0 -6 -7 -9 -15
-5 -8 3 -15 1 -15 -4 0 -6 11 -10 25 -10 31 0 35 35 5 45 -11 3 -20 11 -20 16
0 6 9 7 21 4 15 -5 19 -4 15 4 -12 19 -46 13 -46 -8z"/>
<path d="M2157 1212 c6 -4 13 -23 16 -42 l4 -35 1 37 c1 20 8 39 15 41 6 3 -1
6 -18 6 -17 0 -25 -3 -18 -7z"/>
<path d="M1113 1044 c-14 -16 -20 -31 -15 -42 6 -14 7 -14 10 6 2 12 8 22 14
22 6 0 8 -9 5 -20 -3 -11 -1 -20 4 -20 5 0 9 18 9 40 0 22 -1 40 -2 40 -2 0
-13 -12 -25 -26z"/>
<path d="M2150 1031 c0 -23 5 -41 10 -41 6 0 10 15 10 34 0 19 -4 38 -10 41
-6 4 -10 -10 -10 -34z"/>
<path d="M2263 1030 c0 -25 2 -35 4 -22 2 12 2 32 0 45 -2 12 -4 2 -4 -23z"/>
<path d="M441 1023 c1 -21 3 -30 6 -20 5 18 5 18 20 0 14 -17 14 -17 8 2 -4
11 -10 28 -12 38 -9 31 -23 18 -22 -20z"/>
<path d="M485 1041 c-6 -21 3 -51 16 -51 5 0 9 16 9 35 0 37 -15 47 -25 16z"/>
<path d="M1591 1023 c0 -29 2 -33 8 -18 8 19 8 19 20 0 12 -20 12 -20 6 0 -4
11 -10 28 -12 38 -9 31 -23 18 -22 -20z"/>
<path d="M1635 1041 c-6 -21 3 -51 16 -51 5 0 9 16 9 35 0 37 -15 47 -25 16z"/>
<path d="M2100 1027 c0 -20 4 -38 8 -41 11 -6 9 60 -1 70 -4 4 -7 -9 -7 -29z"/>
<path d="M527 1043 c-4 -3 -7 -17 -7 -30 0 -16 6 -23 18 -22 11 0 12 2 4 6
-10 4 -9 8 3 17 15 10 15 14 2 24 -7 6 -17 9 -20 5z"/>
<path d="M575 1040 c-3 -5 0 -10 7 -10 8 0 6 -5 -5 -11 -9 -6 -15 -15 -11 -21
4 -6 10 -5 15 3 6 10 9 11 9 2 0 -7 5 -13 10 -13 15 0 12 36 -4 49 -10 8 -16
9 -21 1z"/>
<path d="M625 1040 c-4 -6 -2 -17 5 -24 8 -11 8 -15 -2 -19 -8 -4 -7 -6 5 -6
9 -1 17 6 17 14 0 8 -4 15 -10 15 -5 0 -10 5 -10 11 0 5 5 7 12 3 7 -4 8 -3 4
4 -9 15 -13 15 -21 2z"/>
<path d="M756 1043 c-3 -4 -6 -17 -6 -30 0 -17 5 -23 23 -22 21 0 21 1 2 9
-17 7 -17 9 -2 9 9 1 17 7 17 15 0 15 -24 28 -34 19z"/>
<path d="M825 1041 c-3 -6 2 -11 11 -11 17 0 16 -1 -1 -13 -21 -16 -12 -39 11
-30 9 3 14 15 12 31 -3 27 -22 40 -33 23z"/>
<path d="M946 1043 c-3 -4 -6 -17 -6 -30 0 -16 6 -23 20 -23 14 0 20 7 20 24
0 23 -22 41 -34 29z m24 -28 c0 -8 -4 -15 -10 -15 -5 0 -10 7 -10 15 0 8 5 15
10 15 6 0 10 -7 10 -15z"/>
<path d="M1676 1043 c-3 -4 -6 -17 -6 -30 0 -15 6 -23 18 -23 14 0 15 2 2 10
-13 8 -12 10 3 10 9 0 17 6 17 14 0 15 -24 28 -34 19z"/>
<path d="M1775 1040 c-4 -6 -2 -17 5 -24 8 -11 8 -15 -2 -18 -7 -3 8 -5 35 -5
43 -1 47 1 47 23 0 30 -17 32 -23 2 l-4 -23 -2 23 c-1 24 -21 31 -21 7 0 -9
-6 -12 -15 -9 -8 4 -15 10 -15 16 0 5 5 6 12 2 7 -4 8 -3 4 4 -9 15 -13 15
-21 2z"/>
<path d="M1913 1043 c-20 -7 -16 -53 5 -53 14 0 15 2 2 10 -13 8 -12 10 3 10
9 0 17 6 17 14 0 18 -11 25 -27 19z"/>
<path d="M2054 1039 c-3 -5 -1 -16 6 -23 8 -11 8 -15 -2 -19 -7 -3 -3 -6 10
-6 25 -1 30 17 7 25 -8 4 -15 10 -15 15 0 4 7 6 15 3 8 -4 15 -4 15 -1 0 10
-30 16 -36 6z"/>
<path d="M2217 1043 c-4 -3 -7 -17 -7 -30 0 -16 6 -23 18 -22 11 0 12 2 4 6
-10 4 -9 8 3 17 15 10 15 14 2 24 -7 6 -17 9 -20 5z"/>
<path d="M2485 1041 c-3 -6 -11 -8 -17 -5 -6 4 -14 0 -19 -7 -6 -10 -9 -11 -9
-1 0 6 -4 12 -10 12 -6 0 -6 -9 0 -25 5 -14 7 -32 3 -42 -4 -10 -2 -14 5 -10
6 4 14 22 18 40 6 30 7 31 15 10 10 -26 37 -30 46 -7 7 19 -21 51 -32 35z m15
-35 c-14 -14 -24 0 -16 21 6 15 8 15 16 3 6 -9 5 -19 0 -24z"/>
<path d="M660 1021 c0 -11 5 -23 10 -26 6 -4 10 5 10 19 0 14 -4 26 -10 26 -5
0 -10 -9 -10 -19z"/>
<path d="M690 1014 c0 -14 4 -23 10 -19 6 3 10 15 10 26 0 10 -4 19 -10 19 -5
0 -10 -12 -10 -26z"/>
<path d="M720 1015 c0 -14 2 -25 4 -25 2 0 6 11 8 25 3 14 1 25 -3 25 -5 0 -9
-11 -9 -25z"/>
<path d="M870 1015 c0 -14 5 -25 10 -25 6 0 10 11 10 25 0 14 -4 25 -10 25 -5
0 -10 -11 -10 -25z"/>
<path d="M909 1038 c-1 -2 -3 -13 -4 -25 -3 -31 12 -29 17 2 3 14 1 25 -3 25
-5 0 -10 -1 -10 -2z"/>
<path d="M991 1018 c-1 -22 4 -28 19 -28 15 0 20 6 19 28 -2 23 -2 24 -6 5 -2
-13 -8 -23 -13 -23 -5 0 -11 10 -13 23 -4 19 -4 18 -6 -5z"/>
<path d="M1040 1015 c0 -14 5 -25 10 -25 6 0 10 11 10 25 0 14 -4 25 -10 25
-5 0 -10 -11 -10 -25z"/>
<path d="M1070 1017 c0 -15 4 -27 8 -27 10 0 9 36 -1 46 -4 4 -7 -5 -7 -19z"/>
<path d="M1727 1020 c-11 -11 -14 -21 -9 -24 6 -3 13 0 15 6 4 10 6 10 6 1 2
-21 21 -15 21 6 0 28 -12 31 -33 11z"/>
<path d="M1870 1015 c0 -14 2 -25 4 -25 2 0 6 11 8 25 3 14 1 25 -3 25 -5 0
-9 -11 -9 -25z"/>
<path d="M1970 998 c0 -32 3 -39 10 -28 13 20 13 70 0 70 -5 0 -10 -19 -10
-42z"/>
<path d="M2001 1019 c-1 -30 6 -40 25 -32 8 3 13 17 13 32 -2 23 -2 24 -6 4
-2 -13 -8 -23 -13 -23 -5 0 -11 10 -13 23 -4 20 -4 20 -6 -4z"/>
<path d="M2180 1015 c0 -15 4 -24 10 -20 6 3 10 12 10 20 0 8 -4 17 -10 20 -6
4 -10 -5 -10 -20z"/>
<path d="M2280 1015 c0 -18 5 -25 20 -25 15 0 20 7 20 25 0 18 -5 25 -20 25
-15 0 -20 -7 -20 -25z m30 0 c0 -8 -4 -15 -10 -15 -5 0 -10 7 -10 15 0 8 5 15
10 15 6 0 10 -7 10 -15z"/>
<path d="M2337 1022 c1 -8 3 -18 3 -24 0 -6 6 -6 15 2 11 9 15 9 15 1 0 -7 5
-9 10 -6 6 3 10 16 10 28 0 18 -2 19 -10 7 -8 -12 -10 -12 -10 -1 0 10 -3 11
-14 2 -8 -7 -16 -8 -18 -4 -3 4 -3 2 -1 -5z"/>
<path d="M2531 1018 c-1 -22 4 -28 19 -28 15 0 20 7 20 25 0 14 -4 25 -9 25
-6 0 -8 -9 -6 -20 2 -11 0 -20 -5 -20 -5 0 -11 10 -13 23 -4 19 -4 18 -6 -5z"/>
<path d="M2580 1015 c0 -14 2 -25 4 -25 2 0 6 11 8 25 3 14 1 25 -3 25 -5 0
-9 -11 -9 -25z"/>
<path d="M471 897 c0 -23 3 -35 6 -27 14 43 16 44 23 15 7 -28 8 -28 9 -5 0
14 -8 33 -19 43 -20 16 -20 16 -19 -26z"/>
<path d="M600 898 c0 -23 2 -39 5 -37 9 10 13 79 4 79 -5 0 -9 -19 -9 -42z"/>
<path d="M683 900 c0 -25 2 -35 4 -22 2 12 2 32 0 45 -2 12 -4 2 -4 -23z"/>
<path d="M713 900 c0 -25 2 -35 4 -22 2 12 2 32 0 45 -2 12 -4 2 -4 -23z"/>
<path d="M1137 933 c-10 -9 -9 -73 1 -73 4 0 8 18 9 40 3 41 1 45 -10 33z"/>
<path d="M1860 898 c0 -49 5 -47 13 5 3 20 2 37 -4 37 -5 0 -9 -19 -9 -42z"/>
<path d="M2163 900 c0 -25 2 -35 4 -22 2 12 2 32 0 45 -2 12 -4 2 -4 -23z"/>
<path d="M440 897 c0 -20 3 -37 8 -37 4 0 7 13 7 29 0 16 -3 33 -7 37 -5 4 -8
-9 -8 -29z"/>
<path d="M826 921 c-4 -6 -13 -8 -20 -5 -19 7 -30 -14 -16 -30 8 -11 8 -15 -2
-19 -7 -3 -3 -6 10 -6 25 -1 30 17 7 25 -21 9 -19 20 5 20 14 0 20 -7 20 -23
0 -13 3 -23 8 -23 8 0 8 57 0 66 -3 3 -9 1 -12 -5z"/>
<path d="M1020 901 c0 -16 4 -32 9 -36 5 -3 9 8 9 25 -1 40 -18 50 -18 11z"/>
<path d="M1696 922 c-3 -5 -1 -22 4 -38 8 -29 8 -29 9 9 1 36 -3 45 -13 29z"/>
<path d="M2106 922 c-3 -5 -1 -22 4 -38 8 -29 8 -29 9 9 1 36 -3 45 -13 29z"/>
<path d="M530 905 c-16 -19 -6 -45 17 -44 11 0 13 3 6 6 -7 2 -13 14 -13 26 0
18 2 19 10 7 6 -9 10 -10 10 -3 0 19 -17 24 -30 8z"/>
<path d="M631 893 c-1 -27 3 -33 19 -33 15 0 20 6 19 28 -2 23 -2 24 -6 5 -6
-32 -21 -29 -26 5 -4 25 -4 25 -6 -5z"/>
<path d="M734 906 c-9 -23 3 -46 23 -45 15 0 15 2 3 7 -14 6 -16 14 -11 40 1
4 6 0 12 -8 9 -12 10 -12 7 -1 -6 21 -27 25 -34 7z"/>
<path d="M893 913 c-7 -2 -13 -20 -13 -39 0 -34 1 -35 21 -20 13 9 33 13 49 9
25 -5 27 -3 23 21 -6 31 -19 41 -29 25 -4 -8 -3 -9 4 -5 7 4 12 3 12 -3 0 -17
-24 -18 -40 0 -8 9 -21 15 -27 12z m13 -40 c-11 -11 -19 6 -11 24 8 17 8 17
12 0 3 -10 2 -21 -1 -24z"/>
<path d="M1081 903 c-12 -24 2 -48 24 -40 10 4 15 15 13 29 -4 28 -24 34 -37
11z m29 -19 c0 -8 -4 -14 -10 -14 -5 0 -10 9 -10 21 0 11 5 17 10 14 6 -3 10
-13 10 -21z"/>
<path d="M1603 913 c-7 -3 -12 -17 -12 -31 2 -24 2 -24 6 -4 2 12 8 22 13 22
5 0 11 -10 13 -22 4 -20 4 -20 6 4 1 29 -7 38 -26 31z"/>
<path d="M1644 909 c-5 -9 -2 -10 9 -6 10 3 17 2 17 -3 0 -6 -7 -10 -15 -10
-8 0 -15 -7 -15 -15 0 -8 9 -15 21 -15 16 0 20 5 17 27 -3 29 -22 41 -34 22z"/>
<path d="M1814 909 c-5 -9 -2 -10 9 -6 10 3 17 2 17 -3 0 -6 -7 -10 -15 -10
-8 0 -15 -7 -15 -15 0 -8 9 -15 21 -15 16 0 20 5 17 27 -3 29 -22 41 -34 22z"/>
<path d="M1984 909 c-5 -9 -2 -10 9 -6 10 3 17 2 17 -3 0 -6 -7 -10 -15 -10
-8 0 -15 -7 -15 -15 0 -8 9 -15 21 -15 16 0 20 5 17 27 -3 29 -22 41 -34 22z"/>
<path d="M2060 906 c0 -8 5 -18 11 -22 8 -4 7 -9 -2 -15 -11 -7 -10 -9 4 -9 9
0 17 7 17 15 0 8 -4 15 -10 15 -5 0 -10 5 -10 11 0 5 5 7 12 3 7 -4 8 -3 4 4
-10 17 -26 15 -26 -2z"/>
<path d="M2236 893 c9 -38 14 -42 14 -10 0 14 -5 29 -10 32 -7 4 -8 -3 -4 -22z"/>
<path d="M2264 905 c-9 -23 3 -45 23 -44 17 1 17 2 1 6 -20 5 -24 28 -6 39 8
5 9 1 4 -12 -5 -14 -4 -16 5 -7 12 12 5 33 -12 33 -5 0 -12 -7 -15 -15z"/>
<path d="M992 885 c0 -16 2 -22 5 -12 2 9 2 23 0 30 -3 6 -5 -1 -5 -18z"/>
<path d="M1729 900 c-9 -23 0 -40 22 -40 14 0 19 7 19 25 0 14 -4 25 -9 25 -6
0 -8 -9 -6 -20 2 -11 0 -20 -5 -20 -5 0 -10 10 -12 23 -2 16 -5 18 -9 7z"/>
<path d="M1780 885 c0 -14 2 -25 4 -25 2 0 6 11 8 25 3 14 1 25 -3 25 -5 0 -9
-11 -9 -25z"/>
<path d="M1911 903 c-1 -6 2 -19 5 -28 5 -13 9 -14 15 -3 8 11 11 11 18 -1 7
-11 10 -9 16 8 4 13 4 25 1 28 -3 4 -6 0 -6 -8 0 -12 -2 -11 -10 1 -8 12 -11
13 -19 1 -7 -11 -9 -11 -14 0 -3 9 -6 9 -6 2z"/>
<path d="M2032 885 c0 -16 2 -22 5 -12 2 9 2 23 0 30 -3 6 -5 -1 -5 -18z"/>
<path d="M2180 883 c0 -21 3 -24 9 -14 5 8 7 20 4 28 -8 21 -13 15 -13 -14z"/>
<path d="M2212 885 c0 -16 2 -22 5 -12 2 9 2 23 0 30 -3 6 -5 -1 -5 -18z"/>
<path d="M701 767 c1 -39 2 -40 9 -12 7 29 9 28 23 -15 3 -8 6 -4 6 10 1 14
-8 33 -19 43 -20 16 -20 16 -19 -26z"/>
<path d="M846 793 c-4 -4 -15 -8 -24 -8 -11 0 -17 -9 -19 -27 -1 -18 3 -28 12
-28 21 0 29 19 11 26 -22 9 -20 20 4 20 14 0 20 -7 20 -23 0 -13 3 -23 8 -23
8 0 8 57 0 65 -2 3 -8 2 -12 -2z"/>
<path d="M464 776 c-5 -13 -9 -14 -14 -6 -4 7 -7 -6 -6 -28 1 -48 11 -46 25 5
11 38 7 59 -5 29z"/>
<path d="M491 777 c-15 -19 -3 -49 18 -45 9 2 16 13 16 27 0 29 -17 37 -34 18z
m21 -29 c-9 -9 -12 -7 -12 12 0 19 3 21 12 12 9 -9 9 -15 0 -24z"/>
<path d="M541 763 c-1 -27 3 -33 19 -33 16 0 20 6 19 33 -2 30 -2 30 -6 5 -2
-16 -8 -28 -13 -28 -5 0 -11 12 -13 28 -4 25 -4 25 -6 -5z"/>
<path d="M597 783 c-4 -3 -6 -18 -6 -32 1 -21 2 -22 6 -6 3 11 10 26 15 33 11
12 -3 18 -15 5z"/>
<path d="M657 783 c-4 -3 -7 -17 -7 -30 0 -23 23 -32 35 -13 3 6 -1 7 -9 4
-11 -4 -16 0 -16 15 0 15 4 19 17 14 11 -4 14 -3 9 5 -8 13 -19 15 -29 5z"/>
<path d="M757 784 c-4 -4 -7 -18 -7 -31 0 -18 5 -23 23 -22 16 1 18 2 5 6 -20
5 -25 24 -5 21 15 -4 16 24 1 29 -5 2 -13 0 -17 -3z"/>
<path d="M480 580 c0 -11 -7 -20 -15 -20 -8 0 -15 7 -15 15 0 8 -4 15 -10 15
-5 0 -10 -18 -10 -40 0 -22 5 -40 10 -40 6 0 10 9 10 21 0 12 5 19 13 17 6 -3
12 -10 12 -15 0 -6 3 -15 8 -19 4 -4 7 14 7 39 0 26 -2 47 -5 47 -3 0 -5 -9
-5 -20z"/>
<path d="M541 553 c1 -27 3 -41 6 -32 2 10 13 19 24 22 23 6 26 42 3 51 -30
11 -34 6 -33 -41z m37 16 c-2 -6 -8 -10 -13 -10 -5 0 -11 4 -13 10 -2 6 4 11
13 11 9 0 15 -5 13 -11z"/>
<path d="M611 586 c-10 -11 -7 -19 10 -35 13 -11 19 -24 14 -28 -4 -5 -10 -2
-12 5 -3 6 -9 10 -14 6 -14 -8 0 -24 22 -24 31 0 36 30 8 52 -24 19 -24 19 -1
13 25 -7 31 10 6 19 -21 8 -20 8 -33 -8z"/>
<path d="M1640 580 c0 -11 -7 -20 -15 -20 -8 0 -15 7 -15 15 0 8 -4 15 -10 15
-5 0 -10 -18 -10 -40 0 -22 5 -40 10 -40 6 0 10 9 10 20 0 27 18 25 30 -2 7
-19 9 -14 9 25 1 26 -1 47 -4 47 -3 0 -5 -9 -5 -20z"/>
<path d="M1670 555 c0 -40 2 -45 23 -44 16 1 18 2 5 6 -10 2 -18 11 -18 18 0
7 8 16 18 18 16 4 16 5 0 6 -22 1 -24 21 -3 21 8 0 15 5 15 10 0 6 -9 10 -20
10 -17 0 -20 -7 -20 -45z"/>
<path d="M1728 565 c-2 -19 0 -41 4 -48 4 -7 8 9 8 36 0 55 -6 62 -12 12z"/>
<path d="M1760 579 c-16 -29 2 -69 30 -69 15 0 20 7 20 25 0 14 -5 25 -11 25
-6 0 -8 -9 -4 -21 5 -15 3 -20 -6 -17 -16 5 -23 32 -15 55 5 13 9 13 23 2 14
-12 16 -12 11 1 -8 24 -36 23 -48 -1z"/>
<path d="M1832 555 c-1 -39 1 -45 8 -27 12 27 30 29 30 2 0 -11 5 -20 10 -20
6 0 10 18 10 39 0 22 -4 43 -10 46 -5 3 -10 -3 -10 -14 0 -28 -28 -27 -33 2
-2 12 -5 0 -5 -28z"/>
<path d="M1904 584 c3 -9 6 -29 6 -45 0 -16 5 -29 10 -29 6 0 10 16 10 35 0
19 5 35 10 35 6 0 10 5 10 10 0 6 -12 10 -26 10 -20 0 -25 -4 -20 -16z"/>
<path d="M513 550 c0 -25 2 -35 4 -22 2 12 2 32 0 45 -2 12 -4 2 -4 -23z"/>
<path d="M441 400 c1 -42 1 -43 10 -18 7 18 7 33 0 45 -8 14 -10 9 -10 -27z"/>
<path d="M484 425 c-3 -8 -1 -27 4 -42 10 -27 10 -26 11 15 1 43 -5 54 -15 27z"/>
<path d="M1077 420 c-22 -22 -19 -53 6 -58 14 -3 17 4 17 37 0 23 -1 41 -2 40
-2 0 -11 -9 -21 -19z m9 -47 c-11 -11 -19 6 -11 24 8 17 8 17 12 0 3 -10 2
-21 -1 -24z"/>
<path d="M1173 400 c0 -25 2 -35 4 -22 2 12 2 32 0 45 -2 12 -4 2 -4 -23z"/>
<path d="M1138 425 c-6 -7 3 -65 11 -65 7 0 7 58 -1 65 -2 3 -7 3 -10 0z"/>
<path d="M1591 393 c1 -34 2 -35 9 -13 11 36 11 50 0 50 -5 0 -10 -17 -9 -37z"/>
<path d="M1635 410 c-4 -11 -11 -17 -17 -14 -8 5 -9 1 -5 -10 4 -10 7 -20 7
-24 0 -3 7 3 15 14 13 16 14 16 9 2 -3 -10 -1 -18 5 -18 6 0 11 16 11 35 0 38
-15 47 -25 15z"/>
<path d="M515 401 c-8 -26 1 -41 23 -40 11 0 12 3 5 6 -7 2 -13 14 -13 26 0
18 2 19 11 7 9 -12 10 -12 7 -1 -7 23 -26 24 -33 2z"/>
<path d="M564 409 c-5 -9 -2 -10 9 -6 12 5 17 1 17 -13 0 -11 -5 -20 -11 -20
-5 0 -7 5 -4 10 3 6 1 10 -4 10 -6 0 -11 -7 -11 -15 0 -8 9 -15 21 -15 16 0
20 5 17 27 -3 29 -22 41 -34 22z"/>
<path d="M617 413 c-4 -3 1 -15 10 -26 17 -19 17 -20 0 -14 -11 4 -16 3 -12
-3 10 -15 35 -12 35 5 0 8 -4 15 -10 15 -5 0 -10 5 -10 11 0 5 5 7 12 3 7 -4
8 -3 4 4 -8 13 -19 15 -29 5z"/>
<path d="M664 390 c1 -15 8 -26 19 -28 14 -3 17 3 16 30 -2 30 -2 31 -6 6 -5
-34 -20 -37 -26 -5 -3 19 -4 19 -3 -3z"/>
<path d="M714 406 c-3 -8 -4 -23 -2 -33 3 -13 7 -9 15 15 12 31 -1 48 -13 18z"/>
<path d="M746 405 c-8 -22 4 -45 23 -44 10 0 11 2 4 6 -7 2 -13 14 -12 26 0
12 3 16 6 10 2 -7 9 -13 15 -13 6 0 6 6 -2 15 -7 8 -16 15 -20 15 -4 0 -10 -7
-14 -15z"/>
<path d="M824 409 c-4 -8 -3 -9 4 -5 7 4 12 2 12 -3 0 -6 -4 -11 -10 -11 -5 0
-10 -7 -10 -15 0 -8 9 -15 21 -15 16 0 20 5 17 27 -3 29 -22 41 -34 22z"/>
<path d="M870 388 c0 -36 4 -35 14 5 4 16 2 27 -4 27 -5 0 -10 -14 -10 -32z"/>
<path d="M904 405 c-4 -8 -4 -22 0 -30 6 -18 36 -20 36 -3 0 9 3 9 12 0 7 -7
17 -12 24 -12 15 0 24 34 13 51 -6 10 -9 5 -10 -16 -1 -21 -3 -24 -6 -10 -7
30 -23 43 -23 20 -1 -19 -1 -19 -11 -2 -12 21 -28 22 -35 2z m22 -32 c-11 -11
-19 6 -11 24 8 17 8 17 12 0 3 -10 2 -21 -1 -24z"/>
<path d="M1011 388 l1 -33 8 30 c7 29 8 29 24 -15 3 -8 4 -2 3 15 -1 19 -8 31
-19 33 -14 3 -18 -3 -17 -30z"/>
<path d="M1199 388 c4 -28 6 -29 9 -9 2 13 0 27 -5 32 -6 6 -7 -3 -4 -23z"/>
<path d="M1224 405 c-9 -22 3 -45 23 -44 16 0 16 1 -2 8 -18 7 -18 8 -1 18 11
6 16 15 12 22 -10 16 -26 14 -32 -4z"/>
<path d="M1677 413 c-4 -3 -7 -16 -7 -29 0 -20 5 -22 45 -22 41 0 45 2 45 23
0 29 -18 42 -33 25 -9 -10 -9 -11 1 -6 18 11 14 -5 -5 -20 -27 -20 -43 -17
-43 9 0 17 2 19 10 7 5 -8 12 -11 15 -8 8 8 -2 28 -14 28 -4 0 -11 -3 -14 -7z"/>
<path d="M1770 406 c0 -8 5 -18 11 -22 8 -4 7 -9 -2 -15 -11 -7 -10 -9 3 -9
23 0 33 19 14 26 -9 3 -16 10 -16 16 0 5 5 6 10 3 6 -3 10 -1 10 4 0 6 -7 11
-15 11 -8 0 -15 -6 -15 -14z"/>
<path d="M1870 388 c0 -36 4 -35 14 5 4 16 2 27 -4 27 -5 0 -10 -14 -10 -32z"/>
<path d="M1904 406 c-9 -23 3 -46 23 -45 17 1 17 2 1 6 -19 5 -25 43 -7 43 5
0 7 -4 4 -10 -3 -5 -1 -10 5 -10 15 0 8 22 -8 28 -7 2 -15 -3 -18 -12z"/>
<path d="M1976 385 c9 -52 10 -53 24 -10 7 20 9 39 6 42 -3 4 -6 -2 -6 -13 -1
-18 -1 -18 -16 1 -14 19 -15 17 -8 -20z"/>
<path d="M2024 406 c-9 -22 2 -46 21 -46 12 0 15 8 13 27 -3 30 -25 42 -34 19z
m26 -16 c0 -11 -4 -20 -10 -20 -5 0 -10 9 -10 20 0 11 5 20 10 20 6 0 10 -9
10 -20z"/>
<path d="M2073 395 c1 -19 8 -31 20 -33 13 -3 17 3 16 30 l-1 33 -8 -30 c-7
-29 -8 -29 -24 15 -3 8 -4 2 -3 -15z"/>
<path d="M2127 408 c-2 -7 -1 -22 3 -33 6 -17 8 -15 12 13 4 31 -5 45 -15 20z"/>
<path d="M1810 401 c0 -23 14 -41 31 -41 14 0 19 7 19 25 0 31 -17 33 -23 3
l-4 -23 -2 23 c-1 20 -21 33 -21 13z"/>
<path d="M460 375 c0 -8 5 -15 10 -15 6 0 10 7 10 15 0 8 -4 15 -10 15 -5 0
-10 -7 -10 -15z"/>
<path d="M442 303 c-5 -10 -5 -31 -1 -48 6 -28 7 -28 9 -5 1 14 3 35 6 48 5
26 -2 29 -14 5z"/>
<path d="M523 270 c0 -25 2 -35 4 -22 2 12 2 32 0 45 -2 12 -4 2 -4 -23z"/>
<path d="M542 270 c-2 -23 2 -40 8 -40 5 0 10 18 10 40 0 22 -4 40 -8 40 -4 0
-9 -18 -10 -40z"/>
<path d="M970 268 c0 -49 6 -47 13 5 3 20 1 37 -4 37 -5 0 -9 -19 -9 -42z"/>
<path d="M1232 270 c0 -25 2 -38 5 -30 14 43 16 44 23 15 l8 -30 1 33 c1 21
-4 32 -13 32 -8 0 -17 6 -19 13 -3 6 -5 -8 -5 -33z"/>
<path d="M1591 268 c2 -30 3 -35 6 -15 2 15 9 27 14 27 5 0 10 -12 10 -27 2
-26 2 -26 6 -5 3 16 -3 31 -16 43 l-21 20 1 -43z"/>
<path d="M1773 270 c0 -25 2 -35 4 -22 2 12 2 32 0 45 -2 12 -4 2 -4 -23z"/>
<path d="M2000 268 c0 -42 13 -44 23 -3 3 15 5 13 6 -8 1 -30 21 -28 21 1 0
15 -32 52 -45 52 -3 0 -5 -19 -5 -42z"/>
<path d="M2082 270 c1 -28 3 -34 5 -17 2 15 8 27 13 27 5 0 11 -12 13 -27 4
-26 4 -26 6 5 1 22 -4 32 -13 32 -8 0 -17 6 -19 13 -3 6 -5 -8 -5 -33z"/>
<path d="M2230 270 c0 -22 2 -40 4 -40 2 0 6 18 8 40 2 22 0 40 -4 40 -5 0 -8
-18 -8 -40z"/>
<path d="M668 295 c-6 -7 3 -65 11 -65 7 0 7 58 -1 65 -2 3 -7 3 -10 0z"/>
<path d="M860 272 c0 -17 3 -33 8 -35 9 -6 8 50 -1 60 -4 3 -7 -8 -7 -25z"/>
<path d="M1820 271 c0 -17 5 -33 10 -36 6 -4 10 8 10 29 0 20 -4 36 -10 36 -5
0 -10 -13 -10 -29z"/>
<path d="M1970 271 c0 -17 5 -33 10 -36 6 -4 10 8 10 29 0 20 -4 36 -10 36 -5
0 -10 -13 -10 -29z"/>
<path d="M471 263 c-1 -27 3 -33 19 -33 16 0 20 6 19 33 -2 30 -2 30 -6 5 -2
-16 -8 -28 -13 -28 -5 0 -11 12 -13 28 -4 25 -4 25 -6 -5z"/>
<path d="M574 276 c-8 -21 2 -46 18 -45 10 0 10 2 1 6 -18 7 -16 23 3 23 9 0
14 5 12 12 -7 19 -27 21 -34 4z"/>
<path d="M620 277 c0 -7 6 -19 13 -26 10 -11 10 -13 0 -7 -7 4 -13 2 -13 -3 0
-12 23 -15 33 -4 4 3 -1 15 -10 26 -10 11 -12 17 -5 13 6 -4 12 -2 12 3 0 6
-7 11 -15 11 -8 0 -15 -6 -15 -13z"/>
<path d="M721 248 c0 -24 3 -37 6 -30 2 6 11 12 19 12 8 0 14 5 14 12 0 9 3 9
12 0 21 -21 38 -13 38 18 0 20 -5 30 -15 30 -8 0 -15 -5 -15 -11 0 -5 5 -7 10
-4 6 3 10 -3 10 -14 0 -12 -5 -21 -11 -21 -5 0 -7 5 -4 10 3 6 0 10 -8 10 -8
0 -17 7 -21 15 -3 8 -12 15 -21 15 -11 0 -15 -11 -14 -42z m25 -5 c-11 -11
-19 6 -11 24 8 17 8 17 12 0 3 -10 2 -21 -1 -24z"/>
<path d="M827 283 c-10 -9 -9 -41 2 -47 5 -3 11 8 13 24 4 29 -1 37 -15 23z"/>
<path d="M915 270 c-8 -26 7 -45 30 -36 21 8 16 50 -7 54 -10 2 -19 -5 -23
-18z m30 -20 c-5 -8 -11 -8 -17 -2 -6 6 -7 16 -3 22 5 8 11 8 17 2 6 -6 7 -16
3 -22z"/>
<path d="M1025 270 c4 -14 7 -34 6 -44 0 -30 16 -5 23 34 4 23 3 28 -2 15 -9
-19 -9 -19 -21 0 -11 18 -12 18 -6 -5z"/>
<path d="M1074 276 c-8 -22 3 -49 19 -43 6 2 12 14 12 27 0 27 -22 39 -31 16z
m26 -16 c0 -11 -4 -20 -10 -20 -5 0 -10 9 -10 20 0 11 5 20 10 20 6 0 10 -9
10 -20z"/>
<path d="M1122 264 c2 -18 10 -30 21 -32 13 -3 17 3 16 30 l-1 33 -7 -30 c-4
-20 -9 -26 -14 -17 -5 6 -6 16 -2 21 3 5 0 13 -6 16 -7 5 -9 -3 -7 -21z"/>
<path d="M1180 260 c0 -16 2 -30 4 -30 2 0 6 14 8 30 3 17 1 30 -4 30 -4 0 -8
-13 -8 -30z"/>
<path d="M1292 260 c0 -19 2 -27 5 -17 2 9 2 25 0 35 -3 9 -5 1 -5 -18z"/>
<path d="M1311 248 c0 -24 3 -37 6 -30 2 6 11 12 19 12 22 0 14 54 -8 58 -15
3 -18 -4 -17 -40z m25 -5 c-11 -11 -19 6 -11 24 8 17 8 17 12 0 3 -10 2 -21
-1 -24z"/>
<path d="M1367 283 c-4 -3 1 -15 10 -26 17 -20 17 -20 -2 -13 -16 6 -18 5 -7
-5 9 -10 15 -10 24 -1 9 9 8 15 -8 28 -17 14 -17 15 -1 10 11 -3 16 -2 12 4
-7 12 -19 13 -28 3z"/>
<path d="M1644 276 c-9 -23 3 -46 23 -46 15 0 15 2 -3 15 -18 14 -18 14 -1 15
10 0 17 5 15 12 -7 19 -27 21 -34 4z"/>
<path d="M1692 260 c0 -19 2 -27 5 -17 2 9 2 25 0 35 -3 9 -5 1 -5 -18z"/>
<path d="M1716 275 c-7 -19 3 -45 18 -45 6 0 4 -5 -4 -11 -12 -8 -12 -10 5 -7
29 5 36 78 7 78 -11 0 -22 -7 -26 -15z m27 -20 c-7 -21 -13 -19 -13 6 0 11 4
18 10 14 5 -3 7 -12 3 -20z"/>
<path d="M1799 258 c4 -28 6 -29 9 -9 2 13 0 27 -5 32 -6 6 -7 -3 -4 -23z"/>
<path d="M1900 279 c0 -8 7 -24 15 -35 12 -16 14 -17 15 -2 0 9 3 25 6 35 5
15 4 16 -5 3 -10 -13 -12 -13 -21 0 -9 13 -10 13 -10 -1z"/>
<path d="M1952 260 c0 -19 2 -27 5 -17 2 9 2 25 0 35 -3 9 -5 1 -5 -18z"/>
<path d="M2134 276 c-9 -23 3 -46 23 -46 17 1 17 1 1 11 -10 5 -15 16 -11 25
5 13 8 13 15 2 8 -10 9 -10 6 1 -6 21 -27 25 -34 7z"/>
<path d="M2184 276 c-9 -23 3 -46 23 -46 17 1 17 1 1 11 -10 5 -15 16 -11 25
5 13 8 13 15 2 8 -10 9 -10 6 1 -6 21 -27 25 -34 7z"/>
<path d="M2262 260 c1 -17 6 -30 14 -30 20 0 27 19 10 26 -9 3 -16 10 -16 16
0 5 5 6 10 3 6 -3 10 -1 10 4 0 6 -6 11 -14 11 -10 0 -14 -10 -14 -30z"/>
<path d="M1880 263 c0 -12 5 -25 10 -28 13 -8 13 15 0 35 -8 12 -10 11 -10 -7z"/>
</g>
</svg>
